:SAMPLES-PER-SECOND 30
:FRAME-RANGE 1-1390
:FULLY-SPECIFIED
:DEGREES
956
root  35.9422 38.7217 -59.0011 160.688 -59.3532 -170.525
RightUpLeg  -85.1047 -13.0275 60.6518
RightLeg  126.519 3.21616 -3.4144
RightFoot  -33.9091 0.311361 2.71912
RightToes  6.35937e-011 1.2921e-014 -6.02303e-014
Spine  10.2529 -1.36601 7.02192
Spine1  0.449537 2.16369 -6.26601
HEad  12.8166 6.40026 -4.10978
LeftShoulder1  3.15901 -9.93061 -17.4781
LeftArm  45.6381 -23.6817 -70.3975
LeftForeArm  25.1538 -3.5289 -18.1932
LeftHand  -0.0196302 6.83659 1.28322
RightShoulder  2.98755 7.15146 22.4397
RightArm  -3.49502 33.3461 93.1144
RightForeArm  117.525 -3.38675 4.86938
RightHand  1.74798 -18.0238 -16.2122
LeftUpLeg  -6.04633 -12.1783 -5.32895
LeftLeg  44.8855 0.199112 0.644749
LeftFoot  -7.81089 0.0487046 -0.056781
LeftToes  4.52251e-011 4.07896e-011 -5.42348e-012
957
root  35.4662 39.3824 -59.6335 158.905 -59.6702 -169.778
RightUpLeg  -85.1144 -11.3896 59.0588
RightLeg  125.598 1.91743 -1.85876
RightFoot  -33.8514 0.398581 3.16247
RightToes  6.35937e-011 1.2921e-014 -6.02303e-014
Spine  11.3613 -1.99238 5.76635
Spine1  -0.0185142 1.29788 -5.29594
HEad  14.2534 7.45529 -4.33115
LeftShoulder1  3.21061 -10.1518 -17.4677
LeftArm  43.3429 -23.6745 -69.2044
LeftForeArm  25.9433 -2.83769 -18.2501
LeftHand  -0.0167317 6.65175 1.49331
RightShoulder  2.9416 6.94688 22.5677
RightArm  -2.24857 33.7443 94.5028
RightForeArm  116.837 -3.48203 5.25675
RightHand  1.75393 -18.3564 -15.8632
LeftUpLeg  -6.05104 -10.5212 -3.77544
LeftLeg  44.9817 -1.80245 -1.49873
LeftFoot  -2.38889 -0.0666807 1.03611
LeftToes  4.52251e-011 4.07896e-011 -5.42348e-012
958
root  35.091 39.7619 -60.1587 158.464 -60.1839 -169.541
RightUpLeg  -84.7981 -9.85599 57.3318
RightLeg  123.736 1.53216 -1.47839
RightFoot  -34.09 0.457335 3.42874
RightToes  6.35937e-011 1.2921e-014 -6.02303e-014
Spine  12.3979 -2.45693 4.60446
Spine1  -0.251623 0.627481 -4.52291
HEad  14.335 7.78117 -5.03453
LeftShoulder1  3.32525 -10.5553 -17.6098
LeftArm  37.9981 -24.2839 -68.0795
LeftForeArm  29.586 -1.36495 -18.2012
LeftHand  -0.0176471 6.75289 1.67754
RightShoulder  2.8931 6.72782 22.7178
RightArm  -0.644764 33.842 95.4244
RightForeArm  116.998 -3.62094 6.15176
RightHand  1.69241 -18.4185 -15.2731
LeftUpLeg  -7.15856 -10.1869 -2.9392
LeftLeg  41.3688 -0.609953 -0.165618
LeftFoot  -4.57153 -0.0313619 0.996109
LeftToes  4.52251e-011 4.07896e-011 -5.42348e-012
959
root  34.7798 39.7961 -60.598 158.396 -60.911 -169.364
RightUpLeg  -84.6578 -9.8298 55.6836
RightLeg  122.162 0.949068 -0.728646
RightFoot  -32.7622 0.411134 3.35339
RightToes  6.35937e-011 1.2921e-014 -6.02303e-014
Spine  13.6451 -2.78772 3.91606
Spine1  -0.134831 0.234371 -4.08611
HEad  14.0128 7.6363 -5.67572
LeftShoulder1  3.4466 -11.1222 -17.4968
LeftArm  30.673 -25.7616 -67.5502
LeftForeArm  35.5758 0.532701 -17.8919
LeftHand  -0.0173443 6.63668 1.56987
RightShoulder  2.88241 6.76916 22.4793
RightArm  0.451336 34.3355 96.3532
RightForeArm  117.146 -3.66245 6.44922
RightHand  1.78957 -18.628 -15.8457
LeftUpLeg  -8.87732 -10.6695 -2.60144
LeftLeg  35.2264 0.84999 1.02868
LeftFoot  -8.1634 0.050186 -0.0403601
LeftToes  4.52251e-011 4.07896e-011 -5.42348e-012
960
root  34.4415 39.3898 -60.9797 158.564 -61.8091 -169.419
RightUpLeg  -84.5204 -10.1133 54.7481
RightLeg  121.56 0.822509 -0.562129
RightFoot  -32.248 0.428694 3.51347
RightToes  6.35937e-011 1.2921e-014 -6.02303e-014
Spine  14.9251 -3.15419 3.16813
Spine1  -0.177132 -0.260042 -3.43339
HEad  14.8183 7.50822 -5.64661
LeftShoulder1  3.49463 -11.5918 -17.0265
LeftArm  26.2001 -26.6952 -67.4668
LeftForeArm  39.2292 1.6397 -17.5903
LeftHand  -0.0195577 6.54691 1.43911
RightShoulder  2.90795 6.93463 22.2541
RightArm  0.0591862 34.5926 97.4256
RightForeArm  118.232 -3.48828 5.68591
RightHand  1.73882 -18.6824 -15.365
LeftUpLeg  -10.897 -11.467 -2.85294
LeftLeg  29.6764 4.02497 2.84288
LeftFoot  -8.67236 0.09908 -2.01857
LeftToes  4.52251e-011 4.07896e-011 -5.42348e-012
961
root  33.9821 38.4613 -61.3907 158.326 -62.3036 -169.71
RightUpLeg  -84.0773 -10.1304 53.8258
RightLeg  122.401 0.378585 0.114541
RightFoot  -31.6768 0.496261 3.96872
RightToes  6.35937e-011 1.2921e-014 -6.02303e-014
Spine  15.4797 -3.31114 2.50425
Spine1  0.485213 -0.657646 -2.70433
HEad  17.3231 7.24974 -5.11987
LeftShoulder1  3.47143 -11.8924 -16.3533
LeftArm  27.4982 -26.5398 -67.8473
LeftForeArm  37.2608 1.31112 -17.7273
LeftHand  -0.0243024 6.08191 1.24075
RightShoulder  2.87816 6.80541 22.3256
RightArm  0.0135429 34.7053 98.2041
RightForeArm  119.329 -3.37581 5.30528
RightHand  1.68698 -19.0065 -14.5959
LeftUpLeg  -12.1407 -11.8678 -3.45982
LeftLeg  26.9113 5.3147 3.28294
LeftFoot  -4.84441 0.16045 -2.31412
LeftToes  4.52251e-011 4.07896e-011 -5.42348e-012
